<svg xmlns="http://www.w3.org/2000/svg" viewBox="0 0 512 512">
  <rect width="512" height="512" rx="108" fill="#f7f7f4"/>
  <defs>
    <linearGradient id="n" x1="0" y1="0" x2="1" y2="1"><stop offset="0" stop-color="#0b356d"/><stop offset="1" stop-color="#062653"/></linearGradient>
    <linearGradient id="g" x1="0" y1="0" x2="1" y2="1"><stop offset="0" stop-color="#e5b11f"/><stop offset="1" stop-color="#c98e00"/></linearGradient>
  </defs>
  <path d="M103 371C58 323 41 253 57 188C75 114 136 56 214 39C283 25 353 43 401 80" fill="none" stroke="url(#n)" stroke-width="15" stroke-linecap="round"/>
  <path d="M416 93C462 138 481 201 472 260C466 302 448 340 420 370" fill="none" stroke="url(#g)" stroke-width="15" stroke-linecap="round"/>
  <path d="M180 210V164L207 142V211Z" fill="url(#n)"/>
  <path d="M221 227V96L273 51V194L251 207V105L235 120V214Z" fill="url(#n)"/>
  <path d="M286 180V68L330 104V213L309 194V111L300 104V188Z" fill="url(#g)"/>
  <path d="M344 216V143L377 170V241Z" fill="url(#n)"/>
  <path d="M186 273L269 205L352 273H324L269 228L214 273Z" fill="url(#n)"/>
  <path d="M252 250h15v15h-15zm19 0h15v15h-15zm-19 19h15v15h-15zm19 0h15v15h-15z" fill="url(#n)"/>
  <text x="102" y="388" font-family="Georgia, 'Times New Roman', serif" font-size="188" font-weight="700" fill="url(#n)">L</text>
  <text x="248" y="388" font-family="Georgia, 'Times New Roman', serif" font-size="188" font-weight="700" fill="url(#g)">V</text>
  <path d="M103 425C180 399 351 400 429 425" fill="none" stroke="url(#g)" stroke-width="6" stroke-linecap="round"/>
  <path d="M86 439C175 414 359 414 448 439" fill="none" stroke="url(#n)" stroke-width="8" stroke-linecap="round"/>
</svg>
